<svg xmlns="http://www.w3.org/2000/svg" width="156.146" height="105.32" viewBox="0 0 156.146 105.32">
  <path id="Subtraction_1" data-name="Subtraction 1" d="M130.075,114.52h0l-26-26.305-26,26.305L52.049,88.191,26.024,114.52,0,88.191,25.856,62.032l.168-.169L0,35.53,26.024,9.2,52.049,35.53,78.073,9.2,104.1,35.53,78.073,61.862l26,26.305,26-26.305L156.1,88.191,130.076,114.52ZM38.991,35.486h0L25.979,48.651,39.532,62.362,25.979,76.076,38.991,89.242,52.544,75.529,65.016,88.146,78.027,74.98,65.557,62.362l12.47-12.615L65.016,36.582,52.544,49.2,38.991,35.486Zm65.06,33.062h0l-6.121-6.2,6.122-6.2,6.124,6.2-6.123,6.2Zm26.07-6.685h0L104.1,35.533,130.121,9.2l26.025,26.332L130.121,61.862Z" transform="translate(0 -9.201)"/>
</svg>
