<svg xmlns="http://www.w3.org/2000/svg" width="547.171" height="107.598" viewBox="0 0 547.171 107.598">
  <path id="Union_5" data-name="Union 5" d="M417.937,107.306V98.97c1.3,0,2.5-.046,3.7.009a4.441,4.441,0,0,0,4.842-3.222c1.045-2.907,2.16-5.788,3.268-8.741-7.453-19.168-14.89-38.291-22.451-57.738h10.252l16.53,45.454.776.1,16.57-45.541h10.108c-.412,1.233-.736,2.357-1.158,3.441C451.935,54.422,443.4,76.069,435.1,97.808c-2.127,5.57-6.138,9.79-13.582,9.79h-.025A23.022,23.022,0,0,1,417.937,107.306ZM78.072,105.319,52.049,78.99,26.024,105.319,0,78.99,25.856,52.831l.168-.17L0,26.329,26.024,0,52.049,26.329,78.073,0,104.1,26.329,78.073,52.661l26,26.306,26-26.306L156.1,78.99l-26.024,26.329-26-26.306-26,26.306v0ZM25.979,39.45,39.532,53.161,25.979,66.875,38.991,80.041,52.544,66.328,65.016,78.945,78.027,65.779,65.557,53.161l12.47-12.615L65.016,27.381,52.544,40,38.991,26.285ZM321.352,88.31c-11.12-.017-20.1-5.961-23.9-16.294a38.746,38.746,0,0,1,.314-28.65c4-9.918,12.873-15.661,23.617-15.649a24.846,24.846,0,0,1,23.632,15.672c2.01,4.759,2.727,9.727,2.639,16.724h0a44.367,44.367,0,0,1-2.263,11.575C341.772,82.143,332.551,88.31,321.4,88.31ZM308.563,43.04c-3.306,4.626-4.388,9.888-4.347,16.2a24.888,24.888,0,0,0,3.831,13.384c6.559,9.84,19.915,9.9,26.568.127,5.521-8.113,5.279-22.026-.519-29.88a15.275,15.275,0,0,0-25.533.173ZM241.238,86.9c6.821-9.739,13.4-19.136,20.09-28.688L241.036,29.24H252.8c4.647,6.809,9.376,13.741,14.478,21.219h0C272.328,43.05,277,36.2,281.754,29.229h11.753c-6.829,9.754-13.458,19.225-20.285,28.979L293.23,86.772H281.477c-4.457-6.53-9.121-13.364-14.118-20.683-5.179,6.886-9.5,14.028-14.429,20.811Zm153.182-.047V82.71c0-10.9.042-21.806-.036-32.71a20.537,20.537,0,0,0-.822-6.2c-1.653-5.017-6.768-7.913-13.149-7.792-8.563.162-13.667,5.223-13.709,13.744-.055,10.9-.014,21.8-.014,32.708V86.78h-9.315V29.32h9.1c.133,2.08.255,3.984.415,6.468,1.081-1.021,1.764-1.65,2.427-2.3,6.333-6.194,13.729-7.093,21.679-3.944,7.844,3.107,12.652,8.919,12.869,17.461.323,12.754.123,25.52.132,38.281a9.886,9.886,0,0,1-.271,1.564Zm-215.841-.039V8.759h57.41v8.048c-5.279.029-10.565.07-15.85.085-5.228.014-10.455,0-15.682,0H188.233V43.619h43.6v8.136H188.276V78.622h47.767v8.191Zm290.039-.007V29.061c2.14,0,4.107-.02,6.073.007.969.014,1.937.113,3.084.185.128,2.071.244,3.978.4,6.563,4.774-5.4,10.173-8.292,16.937-7.979s11.672,3.732,15.4,9.731c1.093-1.325,1.767-2.2,2.5-3.023a20.652,20.652,0,0,1,23.22-5.14c5.3,2.265,8.416,6.421,9.933,11.824a21.08,21.08,0,0,1,.95,5.478c.08,13.255.043,26.511.043,40.044h-9.676V82.815c0-11.281-.021-22.563.013-33.844a13.51,13.51,0,0,0-2.432-8.408c-2.884-3.887-8.531-5.481-13.849-3.985a11.505,11.505,0,0,0-8.378,9.889,40.4,40.4,0,0,0-.187,4.452q-.022,15.807-.009,31.612V86.8h-9.638V51.657c0-.868,0-1.735,0-2.6-.034-11.428-9.076-14.528-16.979-12.382a9.833,9.833,0,0,0-7.476,7.982,31.532,31.532,0,0,0-.551,5.9c-.052,10.661-.024,21.322-.024,31.983v4.266ZM97.929,53.147l6.122-6.2,6.123,6.2-6.123,6.2ZM104.1,26.332,130.121,0l26.025,26.332L130.121,52.661Z" fill="#fff"/>
</svg>
